<?xml version="1.0"?>
<svg version="1.1" xmlns="http://www.w3.org/2000/svg" width="300" height="51" style=""><path fill="#" d="M25,32.26c0,2.78-2.26,4.28-4.86,4.28c-1.2,0-2.62-0.22-3.82-0.64c-0.26-0.1-0.34-0.22-0.34-0.38c0-0.08,0-0.16,0.04-0.26l0.42-1.3c0.06-0.2,0.16-0.32,0.36-0.32c0.08,0,0.18,0.02,0.3,0.06c0.94,0.34,1.98,0.6,2.98,0.6c1.08,0,2.3-0.52,2.3-1.78c0-0.92-0.68-1.42-1.46-1.8l-2.6-1.3c-1.42-0.7-2.36-1.88-2.36-3.44c0-2.44,2.4-3.78,4.62-3.78c1.32,0,2.42,0.2,3.58,0.7c0.26,0.12,0.4,0.24,0.4,0.4c0,0.08-0.02,0.16-0.06,0.26l-0.48,1.22c-0.08,0.22-0.2,0.3-0.34,0.3c-0.1,0-0.2-0.04-0.32-0.08c-0.82-0.34-1.84-0.62-2.64-0.62c-0.94,0-2.02,0.4-2.02,1.52c0,0.82,0.76,1.3,1.42,1.62l2.22,1.08c1.58,0.76,2.66,1.82,2.66,3.66z M42.73,35.8c0,0.36-0.14,0.5-0.48,0.5l-1.4,0c-0.36,0-0.52-0.14-0.52-0.5l0-5.48c0-1.08-0.28-1.9-1.5-1.9c-0.76,0-1.64,0.4-2.26,0.9c0.04,0.18,0.08,2.86,0.08,3.14l0,3.34c0,0.36-0.14,0.5-0.48,0.5l-1.32,0c-0.36,0-0.52-0.14-0.52-0.5l0-5.48c0-1.06-0.22-1.9-1.44-1.9c-0.78,0-1.58,0.44-2.22,1l0,6.38c0,0.36-0.16,0.5-0.5,0.5l-1.4,0c-0.36,0-0.52-0.14-0.52-0.5l0-8.74c0-0.32,0.18-0.46,0.48-0.46l1.3,0c0.3,0,0.48,0.1,0.5,0.38l0.02,0.5c0.82-0.72,1.9-1.14,2.94-1.14c1.22,0,2.08,0.54,2.54,1.3c0.9-0.86,2.2-1.3,3.42-1.3c1.46,0,2.38,0.72,2.8,1.5c0.38,0.74,0.48,1.62,0.48,2.9l0,5.06z M55.86,35.92c0,0.24-0.16,0.38-0.4,0.38l-0.96,0c-1.04,0-1.5-0.5-1.64-1.18l-0.04,0c-0.5,0.74-1.8,1.42-2.9,1.42c-2.82,0-4.1-2.32-4.1-4.92c0-3.46,2.08-5.28,4.32-5.28c1.06,0,2.06,0.48,2.56,1.16l0.04-0.54c0.02-0.22,0.18-0.36,0.42-0.36l1.4,0c0.26,0,0.42,0.14,0.42,0.44l0,6.94c0,0.28,0.04,0.48,0.12,0.58c0.06,0.06,0.14,0.08,0.24,0.08l0.16,0c0.24,0,0.36,0.08,0.36,0.34l0,0.94z M52.56,33.2l0-3.86c-0.4-0.58-1.22-1.02-1.98-1.02c-1.22,0-2.26,1.04-2.26,3.14c0,1.68,0.64,3.1,2.12,3.1c0.98,0,1.82-0.74,2.12-1.36z M64.27,26.68c0,0.06,0,0.12-0.02,0.18l-0.22,1.42c-0.02,0.18-0.12,0.26-0.28,0.26l-0.08,0c-0.16-0.04-0.36-0.06-0.54-0.06c-0.68,0-1.42,0.36-1.92,0.96l0,6.36c0,0.32-0.14,0.5-0.48,0.5l-1.46,0c-0.32,0-0.48-0.16-0.48-0.5l0-6.24l0-2.46c0-0.4,0.2-0.5,0.5-0.5l1.28,0c0.32,0,0.5,0.1,0.5,0.38l0.02,0.64c0.62-0.78,1.3-1.28,2.42-1.28c0.16,0,0.38,0.04,0.56,0.08c0.14,0.04,0.2,0.1,0.2,0.26z M72.92,35.7c0,0.2-0.1,0.3-0.3,0.38c-0.62,0.26-1.44,0.46-2.24,0.46c-1.02,0-1.9-0.26-2.4-0.84c-0.62-0.7-0.64-1.52-0.64-2.98l0-4.46l-0.94,0c-0.38,0-0.44-0.08-0.44-0.5l0-0.76c0-0.24,0.12-0.4,0.36-0.4l1.02,0l0-2.18c0-0.34,0.18-0.44,0.5-0.48l1.44-0.18l0.1,0c0.26,0,0.38,0.14,0.38,0.44l0,2.4l2.26,0c0.24,0,0.38,0.08,0.38,0.34l0,0.94c0,0.24-0.16,0.38-0.4,0.38l-2.24,0l0,4.58c0,0.6,0.04,1.04,0.26,1.36c0.18,0.26,0.46,0.42,0.94,0.42c0.5,0,0.92-0.12,1.28-0.24c0.08-0.02,0.14-0.04,0.2-0.04c0.14,0,0.22,0.08,0.26,0.24l0.2,1c0.02,0.06,0.02,0.08,0.02,0.12z M84.87,31.32c0,1.52-0.46,2.9-1.3,3.88c-0.74,0.84-1.78,1.36-3.08,1.36c-0.92,0-1.84-0.34-2.42-0.94l0,4.48c0,0.4-0.18,0.52-0.52,0.52l-1.4,0c-0.32,0-0.48-0.18-0.48-0.52l0-13.04c0-0.34,0.16-0.46,0.48-0.46l1.2,0c0.34,0,0.52,0.08,0.54,0.38l0.02,0.54c0.58-0.66,1.72-1.16,2.8-1.16c1.32,0,2.24,0.5,2.9,1.22c0.86,0.94,1.26,2.34,1.26,3.74z M82.35,31.44c0-0.94-0.18-1.76-0.58-2.32c-0.38-0.54-0.94-0.82-1.64-0.82c-0.74,0-1.66,0.48-2.06,0.98l0,4.36c0.4,0.54,1.2,0.98,1.96,0.98c0.7,0,1.26-0.32,1.6-0.74c0.5-0.62,0.72-1.46,0.72-2.44z M96.74,35.9c0,0.3-0.06,0.4-0.32,0.4l-1.76,0c-0.28,0-0.34-0.08-0.34-0.4l0-5.56c0-1.08-0.3-1.88-1.5-1.88c-0.78,0-1.78,0.42-2.4,0.96l0,6.48c0,0.3-0.08,0.4-0.38,0.4l-1.72,0c-0.24,0-0.32-0.1-0.32-0.36l0-13.22c0-0.36,0.16-0.46,0.44-0.5l1.38-0.18c0.08-0.02,0.18-0.02,0.26-0.02c0.22,0,0.34,0.1,0.34,0.38l0,5.02c0.84-0.7,2.1-1.08,3.16-1.08c2.24,0,3.16,1.42,3.16,3.58l0,5.98z M109.51,31.44c0,2.88-1.76,5.1-4.88,5.1c-3.26,0-4.76-2.2-4.76-5.12c0-2.88,1.76-5.08,4.88-5.08c3.26,0,4.76,2.16,4.76,5.1z M107.01,31.44c0-1.64-0.52-3.2-2.28-3.2c-1.78,0-2.36,1.54-2.36,3.14c0,1.64,0.5,3.26,2.28,3.26c1.76,0,2.36-1.56,2.36-3.2z M121.34,35.78c0,0.34-0.12,0.52-0.48,0.52l-1.44,0c-0.36,0-0.48-0.18-0.48-0.52l0-5.44c0-1.1-0.3-1.88-1.52-1.88c-0.78,0-1.74,0.42-2.36,0.96l0,6.38c0,0.34-0.14,0.5-0.48,0.5l-1.46,0c-0.3,0-0.48-0.16-0.48-0.48l0-8.72c0-0.32,0.14-0.5,0.5-0.5l1.3,0c0.28,0,0.46,0.08,0.48,0.38l0.02,0.52c0.92-0.74,2.08-1.16,3.24-1.16c2.24,0,3.16,1.4,3.16,3.58l0,5.86z M133.53,31.42c0,0.48-0.16,0.58-0.66,0.58l-5.86,0c0.16,1.54,1.28,2.6,2.86,2.6c0.84,0,1.72-0.2,2.46-0.48c0.08-0.02,0.14-0.06,0.22-0.06c0.14,0,0.24,0.08,0.28,0.24l0.28,1.02c0.02,0.1,0.04,0.18,0.04,0.24c0,0.14-0.08,0.24-0.32,0.34c-0.98,0.44-2.32,0.64-3.36,0.64c-3.14,0-5-2-5-5.12c0-3,1.98-5.08,4.96-5.08c1.22,0,2.22,0.46,2.92,1.2c0.92,0.96,1.18,2.22,1.18,3.58l0,0.3z M131.15,30.42l0-0.22c-0.04-1.04-0.64-2-1.86-2c-1.3,0-2.08,1.04-2.24,2.22l4.1,0z M152.67,36.06c0,0.16-0.12,0.24-0.3,0.24l-1.82,0c-0.36,0-0.6-0.1-0.78-0.4l-2.88-4.7l-1.54,0l0,4.6c0,0.3-0.12,0.5-0.46,0.5l-1.64,0c-0.34,0-0.48-0.16-0.48-0.5l0-12.76c0-0.44,0.1-0.58,0.54-0.58l2.96,0c1.74,0,3.58,0.26,4.64,1.48c0.64,0.74,0.96,1.72,0.96,2.8c0,1.84-0.98,3.28-2.58,3.98l3.28,5.06c0.06,0.1,0.1,0.2,0.1,0.28z M149.25,26.78c0-1.74-1.16-2.36-2.9-2.36l-1,0l0,4.84l1.24,0c1.6,0,2.66-0.86,2.66-2.48z M164.08,31.42c0,0.48-0.16,0.58-0.66,0.58l-5.86,0c0.16,1.54,1.28,2.6,2.86,2.6c0.84,0,1.72-0.2,2.46-0.48c0.08-0.02,0.14-0.06,0.22-0.06c0.14,0,0.24,0.08,0.28,0.24l0.28,1.02c0.02,0.1,0.04,0.18,0.04,0.24c0,0.14-0.08,0.24-0.32,0.34c-0.98,0.44-2.32,0.64-3.36,0.64c-3.14,0-5-2-5-5.12c0-3,1.98-5.08,4.96-5.08c1.22,0,2.22,0.46,2.92,1.2c0.92,0.96,1.18,2.22,1.18,3.58l0,0.3z M161.7,30.42l0-0.22c-0.04-1.04-0.64-2-1.86-2c-1.3,0-2.08,1.04-2.24,2.22l4.1,0z M176.29,31.32c0,1.52-0.46,2.9-1.3,3.88c-0.74,0.84-1.78,1.36-3.08,1.36c-0.92,0-1.84-0.34-2.42-0.94l0,4.48c0,0.4-0.18,0.52-0.52,0.52l-1.4,0c-0.32,0-0.48-0.18-0.48-0.52l0-13.04c0-0.34,0.16-0.46,0.48-0.46l1.2,0c0.34,0,0.52,0.08,0.54,0.38l0.02,0.54c0.58-0.66,1.72-1.16,2.8-1.16c1.32,0,2.24,0.5,2.9,1.22c0.86,0.94,1.26,2.34,1.26,3.74z M173.77,31.44c0-0.94-0.18-1.76-0.58-2.32c-0.38-0.54-0.94-0.82-1.64-0.82c-0.74,0-1.66,0.48-2.06,0.98l0,4.36c0.4,0.54,1.2,0.98,1.96,0.98c0.7,0,1.26-0.32,1.6-0.74c0.5-0.62,0.72-1.46,0.72-2.44z M188.84,35.92c0,0.24-0.16,0.38-0.4,0.38l-0.96,0c-1.04,0-1.5-0.5-1.64-1.18l-0.04,0c-0.5,0.74-1.8,1.42-2.9,1.42c-2.82,0-4.1-2.32-4.1-4.92c0-3.46,2.08-5.28,4.32-5.28c1.06,0,2.06,0.48,2.56,1.16l0.04-0.54c0.02-0.22,0.18-0.36,0.42-0.36l1.4,0c0.26,0,0.42,0.14,0.42,0.44l0,6.94c0,0.28,0.04,0.48,0.12,0.58c0.06,0.06,0.14,0.08,0.24,0.08l0.16,0c0.24,0,0.36,0.08,0.36,0.34l0,0.94z M185.54,33.2l0-3.86c-0.4-0.58-1.22-1.02-1.98-1.02c-1.22,0-2.26,1.04-2.26,3.14c0,1.68,0.64,3.1,2.12,3.1c0.98,0,1.82-0.74,2.12-1.36z M194.47,24.06c0,0.78-0.68,1.26-1.34,1.26s-1.36-0.44-1.36-1.24s0.66-1.28,1.36-1.28c0.68,0,1.34,0.46,1.34,1.26z M194.35,35.8c0,0.36-0.16,0.5-0.5,0.5l-1.4,0c-0.36,0-0.52-0.14-0.52-0.5l0-8.74c0-0.34,0.2-0.46,0.52-0.46l1.4,0c0.32,0,0.5,0.1,0.5,0.46l0,8.74z M203.66,26.68c0,0.06,0,0.12-0.02,0.18l-0.22,1.42c-0.02,0.18-0.12,0.26-0.28,0.26l-0.08,0c-0.16-0.04-0.36-0.06-0.54-0.06c-0.68,0-1.42,0.36-1.92,0.96l0,6.36c0,0.32-0.14,0.5-0.48,0.5l-1.46,0c-0.32,0-0.48-0.16-0.48-0.5l0-6.24l0-2.46c0-0.4,0.2-0.5,0.5-0.5l1.28,0c0.32,0,0.5,0.1,0.5,0.38l0.02,0.64c0.62-0.78,1.3-1.28,2.42-1.28c0.16,0,0.38,0.04,0.56,0.08c0.14,0.04,0.2,0.1,0.2,0.26z M224.12,29.3c0,4.52-2.58,7.24-6.16,7.24c-3.82,0-6.02-2.78-6.02-7.12c0-4.3,2.4-7.22,6.16-7.22c3.96,0,6.02,3,6.02,7.1z M221.36,29.36c0-3.36-1.18-4.98-3.32-4.98c-2,0-3.34,1.86-3.34,4.98c0,3.32,1.22,5,3.34,5c1.98,0,3.32-1.74,3.32-5z M233.43,35.7c0,0.2-0.1,0.3-0.3,0.38c-0.62,0.26-1.44,0.46-2.24,0.46c-1.02,0-1.9-0.26-2.4-0.84c-0.62-0.7-0.64-1.52-0.64-2.98l0-4.46l-0.94,0c-0.38,0-0.44-0.08-0.44-0.5l0-0.76c0-0.24,0.12-0.4,0.36-0.4l1.02,0l0-2.18c0-0.34,0.18-0.44,0.5-0.48l1.44-0.18l0.1,0c0.26,0,0.38,0.14,0.38,0.44l0,2.4l2.26,0c0.24,0,0.38,0.08,0.38,0.34l0,0.94c0,0.24-0.16,0.38-0.4,0.38l-2.24,0l0,4.58c0,0.6,0.04,1.04,0.26,1.36c0.18,0.26,0.46,0.42,0.94,0.42c0.5,0,0.92-0.12,1.28-0.24c0.08-0.02,0.14-0.04,0.2-0.04c0.14,0,0.22,0.08,0.26,0.24l0.2,1c0.02,0.06,0.02,0.08,0.02,0.12z M242.22,35.7c0,0.2-0.1,0.3-0.3,0.38c-0.62,0.26-1.44,0.46-2.24,0.46c-1.02,0-1.9-0.26-2.4-0.84c-0.62-0.7-0.64-1.52-0.64-2.98l0-4.46l-0.94,0c-0.38,0-0.44-0.08-0.44-0.5l0-0.76c0-0.24,0.12-0.4,0.36-0.4l1.02,0l0-2.18c0-0.34,0.18-0.44,0.5-0.48l1.44-0.18l0.1,0c0.26,0,0.38,0.14,0.38,0.44l0,2.4l2.26,0c0.24,0,0.38,0.08,0.38,0.34l0,0.94c0,0.24-0.16,0.38-0.4,0.38l-2.24,0l0,4.58c0,0.6,0.04,1.04,0.26,1.36c0.18,0.26,0.46,0.42,0.94,0.42c0.5,0,0.92-0.12,1.28-0.24c0.08-0.02,0.14-0.04,0.2-0.04c0.14,0,0.22,0.08,0.26,0.24l0.2,1c0.02,0.06,0.02,0.08,0.02,0.12z M254.39,35.92c0,0.24-0.16,0.38-0.4,0.38l-0.96,0c-1.04,0-1.5-0.5-1.64-1.18l-0.04,0c-0.5,0.74-1.8,1.42-2.9,1.42c-2.82,0-4.1-2.32-4.1-4.92c0-3.46,2.08-5.28,4.32-5.28c1.06,0,2.06,0.48,2.56,1.16l0.04-0.54c0.02-0.22,0.18-0.36,0.42-0.36l1.4,0c0.26,0,0.42,0.14,0.42,0.44l0,6.94c0,0.28,0.04,0.48,0.12,0.58c0.06,0.06,0.14,0.08,0.24,0.08l0.16,0c0.24,0,0.36,0.08,0.36,0.34l0,0.94z M251.09,33.2l0-3.86c-0.4-0.58-1.22-1.02-1.98-1.02c-1.22,0-2.26,1.04-2.26,3.14c0,1.68,0.64,3.1,2.12,3.1c0.98,0,1.82-0.74,2.12-1.36z M270.18,26.86c0,0.06,0,0.1-0.02,0.16l-2.68,8.8c-0.1,0.3-0.26,0.48-0.62,0.48l-1.36,0c-0.36,0-0.52-0.18-0.62-0.5l-1.66-5.7l-0.04,0l-1.64,5.74c-0.1,0.32-0.28,0.46-0.64,0.46l-1.34,0c-0.32,0-0.54-0.2-0.62-0.48l-2.62-8.8c-0.02-0.06-0.02-0.12-0.02-0.16c0-0.18,0.14-0.26,0.4-0.26l1.64,0c0.38,0,0.5,0.14,0.56,0.38l1.44,6.32l0.02,0l1.86-6.3c0.08-0.3,0.28-0.4,0.54-0.4l1.12,0c0.3,0,0.48,0.1,0.54,0.34l1.82,6.4l0.02,0l1.5-6.3c0.06-0.28,0.22-0.44,0.58-0.44l1.54,0c0.24,0,0.3,0.12,0.3,0.26z M282.31,35.92c0,0.24-0.16,0.38-0.4,0.38l-0.96,0c-1.04,0-1.5-0.5-1.64-1.18l-0.04,0c-0.5,0.74-1.8,1.42-2.9,1.42c-2.82,0-4.1-2.32-4.1-4.92c0-3.46,2.08-5.28,4.32-5.28c1.06,0,2.06,0.48,2.56,1.16l0.04-0.54c0.02-0.22,0.18-0.36,0.42-0.36l1.4,0c0.26,0,0.42,0.14,0.42,0.44l0,6.94c0,0.28,0.04,0.48,0.12,0.58c0.06,0.06,0.14,0.08,0.24,0.08l0.16,0c0.24,0,0.36,0.08,0.36,0.34l0,0.94z M279.01,33.2l0-3.86c-0.4-0.58-1.22-1.02-1.98-1.02c-1.22,0-2.26,1.04-2.26,3.14c0,1.68,0.64,3.1,2.12,3.1c0.98,0,1.82-0.74,2.12-1.36z"/><path fill="#" d=""/></svg>
